<?xml version="1.0" encoding="UTF-8"?> <svg xmlns="http://www.w3.org/2000/svg" width="193" height="193" viewBox="0 0 193 193" fill="none"> <circle cx="96.5" cy="96.5" r="94" stroke="white" stroke-width="5"></circle> <rect x="13.5" y="72.5" width="168" height="56" rx="8.5" stroke="white" stroke-width="5"></rect> <path d="M25.9688 112L34.6562 84.1875H38.4688L37.7188 89.7188L28.875 118H25.1562L25.9688 112ZM20.125 84.1875L27.5312 112.312L28.0625 118H24.1562L14.3438 84.1875H20.125ZM46.7812 112.094L53.8438 84.1875H59.5938L49.7812 118H45.9062L46.7812 112.094ZM39.3125 84.1875L47.8125 111.531L48.7812 118H45.0938L36 89.6562L35.25 84.1875H39.3125ZM85.6138 112L94.3013 84.1875H98.1138L97.3638 89.7188L88.52 118H84.8013L85.6138 112ZM79.77 84.1875L87.1763 112.312L87.7075 118H83.8013L73.9888 84.1875H79.77ZM106.426 112.094L113.489 84.1875H119.239L109.426 118H105.551L106.426 112.094ZM98.9575 84.1875L107.458 111.531L108.426 118H104.739L95.645 89.6562L94.895 84.1875H98.9575ZM145.259 112L153.946 84.1875H157.759L157.009 89.7188L148.165 118H144.446L145.259 112ZM139.415 84.1875L146.821 112.312L147.353 118H143.446L133.634 84.1875H139.415ZM166.071 112.094L173.134 84.1875H178.884L169.071 118H165.196L166.071 112.094ZM158.603 84.1875L167.103 111.531L168.071 118H164.384L155.29 89.6562L154.54 84.1875H158.603Z" fill="white"></path> </svg> 