<?xml version="1.0" encoding="UTF-8" standalone="no"?> <svg xmlns="http://www.w3.org/2000/svg" width="512.000000pt" height="512.000000pt" viewBox="0 0 512.000000 512.000000" preserveAspectRatio="xMidYMid meet"> <g transform="translate(0.000000,512.000000) scale(0.100000,-0.100000)" fill="#4287d6" stroke="none"> <path d="M2321 5110 c-497 -48 -990 -251 -1376 -565 -114 -92 -294 -274 -384 -387 -229 -287 -417 -675 -495 -1023 -49 -218 -60 -325 -60 -575 0 -250 11 -357 60 -575 79 -355 272 -749 509 -1040 92 -114 274 -294 387 -384 287 -229 675 -417 1023 -495 218 -49 325 -60 575 -60 250 0 357 11 575 60 261 58 603 204 828 353 389 259 688 599 893 1016 125 255 196 484 241 775 24 161 24 539 0 700 -45 291 -116 520 -241 775 -134 272 -283 480 -498 692 -211 209 -404 346 -673 478 -252 124 -486 197 -765 240 -126 19 -468 27 -599 15z m457 -1550 c75 -34 76 -38 82 -480 5 -373 6 -386 27 -426 24 -44 38 -54 82 -54 37 0 59 18 133 107 129 156 240 342 342 578 72 167 78 176 116 203 33 22 37 22 360 22 358 0 404 -6 430 -55 18 -34 2 -101 -48 -209 -47 -98 -96 -170 -324 -478 -97 -130 -184 -258 -193 -283 -33 -84 -22 -100 229 -355 291 -294 365 -406 337 -500 -6 -20 -22 -47 -37 -61 l-26 -24 -309 -3 c-459 -4 -443 -11 -737 305 -164 177 -219 204 -287 141 -46 -43 -72 -119 -86 -250 -20 -183 -34 -193 -269 -192 -309 1 -543 73 -775 238 -207 149 -452 454 -678 847 -141 245 -374 721 -384 785 -7 44 11 71 55 84 48 13 555 13 603 0 54 -15 84 -54 144 -189 101 -228 243 -475 347 -605 55 -68 119 -116 155 -116 30 0 70 42 83 89 29 98 39 366 20 521 -18 147 -63 212 -167 239 -28 8 -43 17 -43 28 0 23 75 91 113 102 17 5 174 10 347 10 292 1 318 -1 358 -19z"></path> </g> </svg> 